HIERARCHY
ROOT SpineBase
{
  OFFSET 0.000000 0.000000 0.000000
  CHANNELS 6 Xposition Yposition Zposition Zrotation Xrotation Yrotation
  JOINT SpineMid
  {
    OFFSET 0.000000 31.082789 0.000000
    CHANNELS 3 Zrotation Xrotation Yrotation
    JOINT SpineShoulder
    {
      OFFSET 0.194323 23.086127 -0.731816
      CHANNELS 3 Zrotation Xrotation Yrotation
      JOINT Neck
      {
        OFFSET 0.144649 7.638711 -0.560051
        CHANNELS 3 Zrotation Xrotation Yrotation
        JOINT Head
        {
          OFFSET 5.157505 13.591733 -1.016633
          CHANNELS 3 Zrotation Xrotation Yrotation
          End Site
          {
            OFFSET 0 0 0
          }
        }
      }
      JOINT ShoulderLeft
      {
        OFFSET -12.554429 -1.863784 -10.828740
        CHANNELS 3 Zrotation Xrotation Yrotation
        JOINT ElbowLeft
        {
          OFFSET -5.088983 -23.457805 -5.182676
          CHANNELS 3 Zrotation Xrotation Yrotation
          JOINT WristLeft
          {
            OFFSET 5.409509 -23.321651 -6.742352
            CHANNELS 3 Zrotation Xrotation Yrotation
            JOINT HandLeft
            {
              OFFSET 3.879670 -7.763488 -0.239051
              CHANNELS 3 Zrotation Xrotation Yrotation
              JOINT HandTipLeft
              {
                OFFSET 1.947655 -5.636293 -2.786468
                CHANNELS 3 Zrotation Xrotation Yrotation
                End Site
                {
                  OFFSET 0 0 0
                }
              }
              JOINT ThumbLeft
              {
                OFFSET -3.025753 -1.089592 2.224990
                CHANNELS 3 Zrotation Xrotation Yrotation
                End Site
                {
                  OFFSET 0 0 0
                }
              }
            }
          }
        }
      }
      JOINT ShoulderRight
      {
        OFFSET 14.987604 -4.829373 9.561558
        CHANNELS 3 Zrotation Xrotation Yrotation
        JOINT ElbowRight
        {
          OFFSET 1.734597 -27.393382 2.989529
          CHANNELS 3 Zrotation Xrotation Yrotation
          JOINT WristRight
          {
            OFFSET 1.891656 -22.471284 -7.218387
            CHANNELS 3 Zrotation Xrotation Yrotation
            JOINT HandRight
            {
              OFFSET -1.375365 -6.012351 -3.155186
              CHANNELS 3 Zrotation Xrotation Yrotation
              JOINT HandTipRight
              {
                OFFSET -0.901704 -7.833020 -1.083554
                CHANNELS 3 Zrotation Xrotation Yrotation
                End Site
                {
                  OFFSET 0 0 0
                }
              }
              JOINT ThumbRight
              {
                OFFSET 2.831059 -0.205626 -3.978426
                CHANNELS 3 Zrotation Xrotation Yrotation
                End Site
                {
                  OFFSET 0 0 0
                }
              }
            }
          }
        }
      }
    }
  }
  JOINT HipLeft
  {
    OFFSET -5.136609 1.619992 -7.488132
    CHANNELS 3 Zrotation Xrotation Yrotation
    JOINT KneeLeft
    {
      OFFSET -9.604795 -32.117036 -3.095210
      CHANNELS 3 Zrotation Xrotation Yrotation
      JOINT AnkleLeft
      {
        OFFSET -8.174125 -40.515644 7.320000
        CHANNELS 3 Zrotation Xrotation Yrotation
        JOINT FootLeft
        {
          OFFSET 2.604112 -5.887738 -3.988368
          CHANNELS 3 Zrotation Xrotation Yrotation
          End Site
          {
            OFFSET 0 0 0
          }
        }
      }
    }
  }
  JOINT HipRight
  {
    OFFSET 6.884727 0.085859 0.483639
    CHANNELS 3 Zrotation Xrotation Yrotation
    JOINT KneeRight
    {
      OFFSET -4.013981 -33.985862 1.973406
      CHANNELS 3 Zrotation Xrotation Yrotation
      JOINT AnkleRight
      {
        OFFSET -3.416324 -40.002770 8.377515
        CHANNELS 3 Zrotation Xrotation Yrotation
        JOINT FootRight
        {
          OFFSET 2.084773 -5.617055 -6.208681
          CHANNELS 3 Zrotation Xrotation Yrotation
          End Site
          {
            OFFSET 0 0 0
          }
        }
      }
    }
  }
}
MOTION
Frames: 14
Frame Time: 0.033333
-83.844540 82.744164 338.033173 -0.000000 0.000000 -33.549760 -0.000000 0.000000 33.549760 -0.000000 0.000000 0.000000 -0.000000 0.000000 0.000000 0.000000 0.000000 0.000000 -0.000000 0.000000 0.000000 -0.000000 0.000000 0.000000 -0.000000 0.000000 0.000000 -0.000000 0.000000 0.000000 0.000000 0.000000 0.000000 0.000000 0.000000 0.000000 -0.000000 0.000000 0.000000 -0.000000 0.000000 0.000000 -0.000000 0.000000 0.000000 -0.000000 0.000000 0.000000 0.000000 0.000000 0.000000 0.000000 0.000000 0.000000 -0.000000 0.000000 33.549760 -0.000000 0.000000 0.000000 -0.000000 0.000000 0.000000 0.000000 0.000000 0.000000 -0.000000 0.000000 33.549760 -0.000000 0.000000 0.000000 -0.000000 0.000000 0.000000 0.000000 0.000000 0.000000
-83.275795 82.755866 338.384889 -0.109409 0.090244 -34.138189 0.141201 -0.013294 34.138292 -0.000000 0.000000 0.000000 -0.000000 0.000000 0.000000 0.000000 0.000000 0.000000 0.654948 -0.806806 0.035039 -1.478319 0.778813 0.217487 -1.669425 0.361607 0.018885 2.183101 -4.489478 -1.564448 0.000000 0.000000 0.000000 0.000000 0.000000 0.000000 -0.000000 0.000000 0.000000 -0.000000 0.000000 0.000000 2.079701 -1.793398 -0.656789 -0.729852 5.167477 0.055820 0.000000 0.000000 0.000000 0.000000 0.000000 0.000000 0.141201 -0.013294 34.138292 -0.000000 0.000000 0.000000 -0.771722 2.058470 1.433931 0.000000 0.000000 0.000000 0.141201 -0.013294 34.138292 -0.000000 0.000000 0.000000 2.241702 3.451311 -1.215002 0.000000 0.000000 0.000000
-82.752728 82.744635 338.760632 -0.260724 0.144537 -34.458574 0.296757 0.028345 34.458829 -0.000000 0.000000 0.000000 -0.000000 0.000000 0.000000 0.000000 0.000000 0.000000 1.053613 -1.546059 0.117439 -2.910842 1.438134 0.473121 -3.244561 0.756467 -0.000933 4.008666 -8.304403 -2.752954 0.000000 0.000000 0.000000 0.000000 0.000000 0.000000 0.057474 0.892986 0.062422 0.067310 0.355227 0.002158 3.556830 -4.861411 -0.999943 -1.101877 9.576491 -0.122625 0.000000 0.000000 0.000000 0.000000 0.000000 0.000000 -0.387604 -0.461559 34.542156 0.240835 0.543013 -0.297967 -0.957741 3.296865 2.950740 0.000000 0.000000 0.000000 0.296757 0.028345 34.458829 -0.000000 0.000000 0.000000 3.766177 5.827895 -2.050607 0.000000 0.000000 0.000000
-82.275338 82.710472 339.160402 -0.454008 0.162648 -34.511886 0.466259 0.123209 34.512029 -0.000000 0.000000 0.000000 -0.000000 0.000000 0.000000 0.000000 0.000000 0.000000 1.205885 -2.220961 0.240400 -4.302889 1.979675 0.764517 -4.805831 1.196475 -0.045255 5.613072 -11.420233 -3.594002 0.000000 0.000000 0.000000 0.000000 0.000000 0.000000 -0.039814 1.167729 0.070085 0.031724 0.277585 0.054541 4.799838 -6.904114 -1.079823 -1.076468 13.113565 -0.509499 0.000000 0.000000 0.000000 0.000000 0.000000 0.000000 -0.552871 -0.448914 34.589364 0.305815 0.693726 -0.391314 -1.487767 4.535731 4.247818 0.000000 0.000000 0.000000 -0.214244 -0.368420 34.464188 -0.143671 0.271743 -0.178558 5.522993 7.003939 -2.197671 0.000000 0.000000 0.000000
-81.843626 82.653376 339.584199 -0.689243 0.144414 -34.297298 0.650778 0.269076 34.296638 -0.000000 0.000000 0.000000 -0.000000 0.000000 0.000000 0.000000 0.000000 0.000000 1.120446 -2.835091 0.398370 -5.654768 2.405689 1.087154 -6.452494 1.691802 -0.095789 7.134775 -13.843372 -4.100468 0.000000 0.000000 0.000000 0.000000 0.000000 0.000000 -0.217511 1.332653 0.063270 -0.053197 0.026579 0.139362 5.656138 -8.702845 -0.916535 -0.617663 15.707323 -1.092423 0.000000 0.000000 0.000000 0.000000 0.000000 0.000000 -0.699956 -0.268901 34.338522 0.329762 0.764782 -0.448762 -2.045999 5.544681 5.446996 0.000000 0.000000 0.000000 -0.170506 -0.291228 34.238820 -0.324361 0.433467 -0.250388 5.933132 7.337934 -2.024691 0.000000 0.000000 0.000000
-81.457592 82.573348 340.032023 -0.966322 0.089742 -33.812116 -0.063045 -0.066975 33.778537 -0.045375 -0.057031 -0.047490 1.397122 -0.834644 0.418280 0.000000 0.000000 0.000000 1.911018 -3.401625 0.668217 -6.961402 2.719158 1.434172 -8.311041 2.251117 -0.128134 8.723838 -15.596740 -4.270948 0.000000 0.000000 0.000000 0.000000 0.000000 0.000000 0.626279 1.379879 0.123274 -0.189608 -0.401928 0.254238 6.086384 -10.280640 -0.514650 0.309887 17.320529 -1.876963 0.000000 0.000000 0.000000 0.000000 0.000000 0.000000 -0.823562 0.080715 33.788290 0.310544 0.757507 -0.471477 -2.631516 6.348520 6.561143 0.000000 0.000000 0.000000 -0.069748 -0.116122 33.745277 -0.561311 0.631733 -0.326310 5.634854 6.737768 -1.376737 0.000000 0.000000 0.000000
-81.144595 82.465603 340.493667 -1.276082 -0.015473 -32.873997 -0.113817 -0.058927 32.829454 -0.067289 -0.045728 -0.063018 1.936778 -1.416386 0.704169 0.000000 0.000000 0.000000 1.706802 -3.934048 0.935562 -8.392853 3.043992 1.867196 -11.158521 1.644449 -1.034438 11.965789 -13.631516 -2.786442 0.000000 0.000000 0.000000 0.000000 0.000000 0.000000 0.559872 1.359975 0.101252 -0.303761 -1.371618 0.382915 4.366018 -11.708007 1.019582 3.398633 16.728910 -3.782323 0.000000 0.000000 0.000000 0.000000 0.000000 0.000000 -1.170332 0.670899 32.723772 0.484494 0.507247 -0.413889 -2.746627 6.957914 7.182820 0.000000 0.000000 0.000000 0.109171 0.135815 32.805221 -0.801921 0.841445 -0.392914 1.594549 0.155370 1.210695 0.000000 0.000000 0.000000
-80.865723 82.329388 341.009074 -1.665639 -0.145759 -31.675333 -0.165996 -0.054020 31.616659 -0.093085 -0.043194 -0.081893 2.533063 -1.989279 1.004340 0.000000 0.000000 0.000000 1.382170 -4.304445 1.214310 -9.740000 3.112310 2.285900 -14.795594 2.840621 -0.618656 14.506218 -14.516790 -2.093943 0.000000 0.000000 0.000000 0.000000 0.000000 0.000000 0.589262 1.262196 0.077065 -0.637723 -2.302358 0.566760 2.145775 -14.506792 3.176037 7.977050 18.140645 -7.210396 0.000000 0.000000 0.000000 0.000000 0.000000 0.000000 -1.066262 1.196688 31.467992 0.405270 0.685359 -0.451117 -3.796284 7.789700 8.650510 0.000000 0.000000 0.000000 0.420220 0.505420 31.605615 -1.181857 1.211197 -0.484125 1.066623 -0.369408 2.189784 0.000000 0.000000 0.000000
-80.601896 82.163705 341.547435 -2.111643 -0.322511 -30.393319 -0.217476 -0.060572 30.317321 -0.114542 -0.048427 -0.102361 3.040380 -2.407411 1.257398 0.000000 0.000000 0.000000 0.787004 -4.383806 1.504610 -10.572650 2.853665 2.535803 -19.255731 3.621490 -0.302152 18.070135 -15.300235 -1.501376 0.000000 0.000000 0.000000 0.000000 0.000000 0.000000 0.402963 1.418926 0.044679 -0.685842 -3.540874 0.739614 1.429947 -15.295458 4.166377 10.161197 16.393555 -8.615413 0.000000 0.000000 0.000000 0.000000 0.000000 0.000000 -0.854854 1.803001 30.127428 -0.065759 1.121626 -0.595685 -6.966413 4.256266 10.213814 0.000000 0.000000 0.000000 0.785661 1.041988 30.312355 -1.620570 1.515820 -0.570041 -1.057104 -3.881019 3.843091 0.000000 0.000000 0.000000
-80.332215 82.001679 342.110256 -2.567870 -0.525313 -29.076083 -0.239798 -0.068103 28.981420 -0.119357 -0.059865 -0.120593 3.452813 -2.671754 1.457708 0.000000 0.000000 0.000000 0.266812 -4.675046 1.824785 -11.563296 3.198477 2.960078 -22.914930 4.219145 -0.088322 21.567092 -15.925945 -1.061036 0.000000 0.000000 0.000000 0.000000 0.000000 0.000000 0.456567 1.251062 0.005317 -1.135491 -4.093086 0.976788 2.510760 -16.393855 4.333755 10.854204 14.625950 -9.024780 0.000000 0.000000 0.000000 0.000000 0.000000 0.000000 -0.498966 3.186403 28.536224 -0.877906 0.422200 -0.418757 -5.983752 8.623699 11.788025 0.000000 0.000000 0.000000 1.163178 1.648935 28.973916 -2.199270 1.643125 -0.668485 -0.452898 -2.781103 4.273101 0.000000 0.000000 0.000000
-80.104618 81.863574 342.615835 -2.998243 -0.719482 -27.917432 -0.236954 -0.079720 27.803919 -0.109111 -0.074940 -0.135874 3.723160 -2.815554 1.601320 0.000000 0.000000 0.000000 -0.355715 -4.920717 2.138135 -12.232396 3.633443 3.337891 -23.802977 4.231451 -0.575202 22.534733 -15.023471 0.062132 0.000000 0.000000 0.000000 0.000000 0.000000 0.000000 0.659127 0.826543 -0.043343 -1.517046 -4.205345 1.158903 5.192006 -16.036371 3.289596 9.291186 13.782045 -7.725362 0.000000 0.000000 0.000000 0.000000 0.000000 0.000000 0.217021 4.702101 27.045749 -2.045710 -0.513381 -0.192095 -5.522935 7.237783 11.116519 0.000000 0.000000 0.000000 2.313810 2.038427 27.857433 -3.335091 2.330776 -0.831320 2.171058 1.906810 3.672435 0.000000 0.000000 0.000000
-79.869336 81.753506 343.117842 -3.476432 -0.855540 -26.948370 -0.229238 -0.107302 26.813269 -0.096172 -0.093110 -0.153769 4.262610 -3.099289 1.809217 0.000000 0.000000 0.000000 -0.640548 -5.342232 2.424000 -13.249950 4.379404 3.921862 -23.310405 3.626558 -1.866076 22.253216 -13.045130 1.798334 0.000000 0.000000 0.000000 0.000000 0.000000 0.000000 1.135561 0.175527 -0.085538 -1.959443 -4.053005 1.304915 6.427313 -15.215392 2.704430 7.301080 13.218315 -6.495168 0.000000 0.000000 0.000000 0.000000 0.000000 0.000000 0.867686 7.092388 25.455805 -2.604711 -3.487603 0.653090 -1.775807 12.339027 9.334392 0.000000 0.000000 0.000000 2.713320 2.336366 26.867067 -3.740409 2.736754 -0.930035 1.621685 1.121682 4.706417 0.000000 0.000000 0.000000
-79.671825 81.688358 343.516994 -3.893953 -0.944746 -26.286237 -0.194242 -0.140699 26.131857 -0.066569 -0.115191 -0.167623 4.676225 -3.288644 1.961970 0.000000 0.000000 0.000000 -0.743064 -5.782892 2.646807 -14.172008 5.139581 4.476024 -20.656138 3.310275 -2.816559 20.134942 -12.896402 2.296722 0.000000 0.000000 0.000000 0.000000 0.000000 0.000000 1.659164 -0.521961 -0.121708 -2.319205 -3.643447 1.405888 7.235079 -14.344496 2.205856 6.845114 12.225894 -5.871313 0.000000 0.000000 0.000000 0.000000 0.000000 0.000000 2.322769 8.693137 24.318679 -3.212723 -5.581682 1.393942 -1.380438 15.030640 8.625395 0.000000 0.000000 0.000000 3.075769 2.569052 26.185136 -4.005247 3.012029 -0.993561 1.206201 0.498238 5.410755 0.000000 0.000000 0.000000
-79.518918 81.654643 343.798439 -4.168729 -1.034001 -25.916334 -0.160412 -0.141987 25.748804 -0.045848 -0.113898 -0.175463 4.794275 -3.362885 2.028012 0.000000 0.000000 0.000000 -0.774388 -6.224408 2.807781 -14.572205 5.770377 4.766387 -17.412913 2.766304 -3.701874 17.035890 -12.610101 2.775795 0.000000 0.000000 0.000000 0.000000 0.000000 0.000000 2.117938 -1.148649 -0.146207 -2.344473 -2.970095 1.403208 8.236583 -14.602023 1.791834 4.084015 14.236720 -4.738693 0.000000 0.000000 0.000000 0.000000 0.000000 0.000000 4.048134 9.608362 23.604188 -3.673560 -6.862752 2.038441 1.972988 22.510231 7.087387 0.000000 0.000000 0.000000 2.985343 3.594876 25.715634 -4.357835 2.279304 -1.017663 -0.528526 -0.384910 7.419582 0.000000 0.000000 0.000000
